# xmcd CD database file
#
# Track frame offsets:
#	150
#	11590
#	27417
#	40094
#	51909
#	63424
#	75202
#	87130
#	100709
#	111474
#	123738
#	136641
#
# Disc length: 2015 seconds
#
# Revision: 1
# Processed by: cddbd v1.5.2PL0 Copyright (c) Steve Scherf et al.
# Submitted via: CDex 1.81
#
DISCID=9107dd0c
DTITLE=Silberbirch [CDN-Out On A Limb-bl.grs) Udora, ON - Out On A Limb
DYEAR=1900
DGENRE=Bluegrass
TTITLE0=Broken Heart Road
TTITLE1=Red Hill Creek
TTITLE2=Still Holding You
TTITLE3=Follow the Son
TTITLE4=Chance of Rain
TTITLE5=Sticks and Stones
TTITLE6=I Don't Miss You
TTITLE7=No Answers
TTITLE8=Stomp
TTITLE9=I'll Call Your Name
TTITLE10=The Winding Road
TTITLE11=Pathway's End
EXTD=
EXTT0=
EXTT1=
EXTT2=
EXTT3=
EXTT4=
EXTT5=
EXTT6=
EXTT7=
EXTT8=
EXTT9=
EXTT10=
EXTT11=
PLAYORDER=
